<svg width="75" height="88" viewBox="0 0 75 88" fill="none" xmlns="http://www.w3.org/2000/svg">
<path d="M37.636 87.8535C26.4395 87.8535 16.9809 83.5771 10.283 75.4872C3.70492 67.541 0.228516 56.46 0.228516 43.4405C0.228516 22.9282 11.8368 0.85083 37.3258 0.85083C48.5173 0.85083 57.9472 4.97258 64.5971 12.7701C71.2961 20.6285 74.8367 31.8618 74.8367 45.265C74.8367 56.4472 71.6775 66.7844 65.9414 74.3729C59.2744 83.1914 49.4864 87.8535 37.636 87.8535ZM37.3258 4.50532C14.1159 4.50532 3.54517 24.6881 3.54517 43.4399C3.54517 68.1995 16.9262 84.1984 37.636 84.1984C61.0427 84.1984 71.5211 64.6437 71.5211 45.2644C71.52 20.1235 58.4176 4.50532 37.3258 4.50532ZM37.2225 69.1791C26.6949 69.1791 19.3424 59.0624 19.3424 44.5779C19.3424 29.0529 26.3516 19.409 37.636 19.409C48.5732 19.409 55.1037 28.5199 55.1037 43.7811C55.1026 59.922 48.5854 69.1791 37.2225 69.1791ZM37.636 23.0641C28.2576 23.0641 22.6591 31.1052 22.6591 44.5779C22.6591 56.9108 28.6478 65.524 37.2225 65.524C43.8663 65.524 51.7859 61.7519 51.7859 43.7811C51.7859 30.6149 46.6285 23.0641 37.636 23.0641Z" fill="#FCD015"/>
</svg>
